<?xml version="1.0" encoding="UTF-8"?>
<!DOCTYPE svg PUBLIC "-//W3C//DTD SVG 1.1//EN" "http://www.w3.org/Graphics/SVG/1.1/DTD/svg11.dtd">
<!-- Creator: CorelDRAW -->
<svg xmlns="http://www.w3.org/2000/svg" xml:space="preserve" width="8.33333in" height="8.33333in" version="1.1" style="shape-rendering:geometricPrecision; text-rendering:geometricPrecision; image-rendering:optimizeQuality; fill-rule:evenodd; clip-rule:evenodd"
viewBox="0 0 8333 8333"
 xmlns:xlink="http://www.w3.org/1999/xlink">
 <defs>
  <style type="text/css">
   <![CDATA[
    .fil0 {fill:#333333}
    .fil1 {fill:#7DD63E}
    .fil3 {fill:#FFA721}
    .fil2 {fill:#FFE4AF}
   ]]>
  </style>
 </defs>
 <g id="Layer_x0020_1">
  <metadata id="CorelCorpID_0Corel-Layer"/>
  <path class="fil0" d="M3980 4968c-53,0 -102,-35 -117,-89 -17,-65 21,-131 86,-148l477 -128c64,-17 130,21 147,85 18,65 -21,131 -85,148l-477 128c-10,3 -21,4 -31,4zm-958 2437l-2290 0c-67,0 -121,-54 -121,-121l0 -5387 0 0 0 -848c0,-66 54,-121 121,-121l2290 0 0 0 2290 0 2289 0c67,0 121,55 121,121l0 848 0 5387c0,67 -54,121 -121,121l-2289 0 -2290 0zm-2169 -242l2048 0 0 -5145 -2048 0 0 5145zm0 -5387l2048 0 0 -606 -2048 0 0 606zm4579 242l0 5145 2049 0 0 -5145 -2049 0zm-2289 5145l2048 0 0 -5145 -2048 0 0 5145zm2289 -5993l0 606 2049 0 0 -606 -2049 0zm-2289 606l2048 0 0 -606 -2048 0 0 606zm-619 -182l-1294 0c-66,0 -120,-54 -120,-121 0,-67 54,-121 120,-121l1294 0c66,0 120,54 120,121 0,67 -54,121 -120,121zm2289 0l-1293 0c-67,0 -121,-54 -121,-121 0,-67 54,-121 121,-121l1293 0c67,0 121,54 121,121 0,67 -54,121 -121,121zm2290 0l-1293 0c-67,0 -121,-54 -121,-121 0,-67 54,-121 121,-121l1293 0c67,0 121,54 121,121 0,67 -54,121 -121,121zm-4614 2267l-1224 0c-67,0 -121,-54 -121,-121l0 -1224c0,-66 54,-120 121,-120l1224 0c66,0 120,54 120,120l0 1224c0,67 -54,121 -120,121zm-1103 -242l982 0 0 -982 -982 0 0 982zm1103 2661l-1224 0c-67,0 -121,-54 -121,-120l0 -1224c0,-67 54,-121 121,-121l1224 0c66,0 120,54 120,121l0 1224c0,66 -54,120 -120,120zm-1103 -241l982 0 0 -982 -982 0 0 982zm5682 -1522l-1223 0c-67,0 -121,-55 -121,-121l0 -1224c0,-67 54,-121 121,-121l1223 0c67,0 121,54 121,121l0 1224c0,66 -54,121 -121,121zm-1103 -242l983 0 0 -982 -983 0 0 982zm-4174 -877c-31,0 -62,-12 -86,-36l-125 -125c-47,-47 -47,-124 0,-171 47,-47 124,-47 171,0l40 40 212 -212c47,-47 124,-47 171,0 47,47 47,124 0,171l-298 297c-23,24 -54,36 -85,36zm0 2419c-32,0 -63,-13 -86,-35l-125 -126c-47,-47 -47,-123 0,-170 47,-48 124,-48 171,0l40 40 212 -212c47,-48 124,-48 171,0 47,47 47,123 0,170l-298 298c-22,22 -53,35 -85,35zm4579 -1764l0 0c-32,0 -62,-12 -85,-35l-125 -125c-48,-47 -48,-124 0,-171 47,-47 123,-47 170,0l40 40 212 -212c48,-47 124,-47 171,0 47,47 47,123 0,171l-297 297c-23,23 -54,35 -86,35zm-2636 1408c-53,0 -102,-36 -117,-90l-316 -1182c-18,-64 21,-131 85,-148l1182 -317c64,-17 131,21 148,86l317 1182c8,31 4,64 -12,91 -16,28 -43,48 -74,57l-1182 316c-10,3 -21,5 -31,5zm-169 -1218l254 949 949 -254 -254 -949 -949 254zm311 339c-53,0 -102,-35 -116,-89 -17,-65 21,-131 85,-148l477 -128c64,-17 131,21 148,85 17,65 -21,131 -85,148l-477 128c-11,3 -21,4 -32,4z"/>
  <g id="_631600608">
   <path class="fil1" d="M2901 7163l0 -5145 -2048 0 0 5145 2048 0zm-412 -3302l-1224 0c-67,0 -121,-54 -121,-121l0 -1224c0,-66 54,-120 121,-120l1224 0c66,0 120,54 120,120l0 1224c0,67 -54,121 -120,121zm-1224 954l1224 0c66,0 120,54 120,121l0 1224c0,66 -54,120 -120,120l-1224 0c-67,0 -121,-54 -121,-120l0 -1224c0,-67 54,-121 121,-121z"/>
   <path class="fil1" d="M3386 4041l781 -209 0 -1814 -1024 0 0 5145 1024 0 0 -1814 -402 107c-10,3 -21,5 -31,5 -53,0 -102,-36 -117,-90l-316 -1182c-18,-64 21,-131 85,-148z"/>
   <path class="fil2" d="M4167 4082l-602 161 254 949 348 -93 0 -177 -156 42c-10,3 -21,4 -31,4 -53,0 -102,-35 -117,-89 -17,-65 21,-131 86,-148l218 -59 0 -163 -259 69c-11,3 -21,4 -32,4 -53,0 -102,-35 -116,-89 -17,-65 21,-131 85,-148l322 -86 0 -177z"/>
   <path class="fil2" d="M2368 6039l0 -982 -982 0 0 982 982 0zm-617 -553l40 40 212 -212c47,-48 124,-48 171,0 47,47 47,123 0,170l-298 298c-22,22 -53,35 -85,35 -32,0 -63,-13 -86,-35l-125 -126c-47,-47 -47,-123 0,-170 47,-48 124,-48 171,0z"/>
   <path class="fil2" d="M1386 3619l982 0 0 -982 -982 0 0 982zm405 -221c-31,0 -62,-12 -86,-36l-125 -125c-47,-47 -47,-124 0,-171 47,-47 124,-47 171,0l40 40 212 -212c47,-47 124,-47 171,0 47,47 47,124 0,171l-298 297c-23,24 -54,36 -85,36z"/>
   <path class="fil3" d="M853 1776l2048 0 0 -606 -2048 0 0 606zm1671 -424c66,0 120,54 120,121 0,67 -54,121 -120,121l-1294 0c-66,0 -120,-54 -120,-121 0,-67 54,-121 120,-121l1294 0z"/>
   <path class="fil3" d="M3143 1170l0 606 1024 0 0 -182 -647 0c-67,0 -121,-54 -121,-121 0,-67 54,-121 121,-121l647 0 0 -182 -1024 0z"/>
  </g>
 </g>
</svg>
