<?xml version="1.0" encoding="utf-8"?>
<!-- Generator: Adobe Illustrator 26.0.2, SVG Export Plug-In . SVG Version: 6.00 Build 0)  -->
<svg version="1.1" id="Layer_3" xmlns="http://www.w3.org/2000/svg" xmlns:xlink="http://www.w3.org/1999/xlink" x="0px" y="0px"
	 viewBox="0 0 64 64" style="enable-background:new 0 0 64 64;" xml:space="preserve">
<g>
	<rect x="8" y="8" style="fill:#A1CDF9;" width="48" height="48"/>
	<path style="fill:#C7E2FB;" d="M56,8H8v10.5C8,39.211,24.118,56,44,56h12V8z"/>
	<circle style="fill:#EBF7FE;" cx="37.5" cy="28.5" r="13.5"/>
	<g>
		<g>
			<rect x="1" y="28" style="fill:#A1CDF9;" width="2" height="2"/>
		</g>
	</g>
	<g>
		<g>
			<rect x="1" y="24" style="fill:#A1CDF9;" width="2" height="2"/>
		</g>
	</g>
	<g>
		<g>
			<rect x="1" y="20" style="fill:#A1CDF9;" width="2" height="2"/>
		</g>
	</g>
	<g>
		<g>
			<rect x="1" y="16" style="fill:#A1CDF9;" width="2" height="2"/>
		</g>
	</g>
	<g>
		<g>
			<rect x="1" y="12" style="fill:#A1CDF9;" width="2" height="2"/>
		</g>
	</g>
	<g>
		<g>
			<rect x="1" y="8" style="fill:#A1CDF9;" width="2" height="2"/>
		</g>
	</g>
	<g>
		<g>
			<rect x="28" y="1" style="fill:#A1CDF9;" width="2" height="2"/>
		</g>
	</g>
	<g>
		<g>
			<rect x="24" y="1" style="fill:#A1CDF9;" width="2" height="2"/>
		</g>
	</g>
	<g>
		<g>
			<rect x="20" y="1" style="fill:#A1CDF9;" width="2" height="2"/>
		</g>
	</g>
	<g>
		<g>
			<rect x="16" y="1" style="fill:#A1CDF9;" width="2" height="2"/>
		</g>
	</g>
	<g>
		<g>
			<rect x="12" y="1" style="fill:#A1CDF9;" width="2" height="2"/>
		</g>
	</g>
	<g>
		<g>
			<rect x="8" y="1" style="fill:#A1CDF9;" width="2" height="2"/>
		</g>
	</g>
	<g>
		<g>
			<path style="fill:#A1CDF9;" d="M3,6H1V2c0-0.553,0.447-1,1-1h3.998v2H3V6z"/>
		</g>
	</g>
	<g>
		<rect x="34" y="61" style="fill:#A1CDF9;" width="2" height="2"/>
	</g>
	<g>
		<g>
			<rect x="38" y="61" style="fill:#A1CDF9;" width="2" height="2"/>
		</g>
	</g>
	<g>
		<g>
			<rect x="42" y="61" style="fill:#A1CDF9;" width="2" height="2"/>
		</g>
	</g>
	<g>
		<g>
			<rect x="46" y="61" style="fill:#A1CDF9;" width="2" height="2"/>
		</g>
	</g>
	<g>
		<g>
			<rect x="50" y="61" style="fill:#A1CDF9;" width="2" height="2"/>
		</g>
	</g>
	<g>
		<g>
			<rect x="54" y="61" style="fill:#A1CDF9;" width="2" height="2"/>
		</g>
	</g>
	<g>
		<g>
			<rect x="61" y="33.998" style="fill:#A1CDF9;" width="2" height="2"/>
		</g>
	</g>
	<g>
		<g>
			<rect x="61" y="37.998" style="fill:#A1CDF9;" width="2" height="2"/>
		</g>
	</g>
	<g>
		<g>
			<rect x="61" y="41.998" style="fill:#A1CDF9;" width="2" height="2"/>
		</g>
	</g>
	<g>
		<g>
			<rect x="61" y="45.998" style="fill:#A1CDF9;" width="2" height="2"/>
		</g>
	</g>
	<g>
		<g>
			<rect x="61" y="49.998" style="fill:#A1CDF9;" width="2" height="2"/>
		</g>
	</g>
	<g>
		<g>
			<rect x="61" y="53.998" style="fill:#A1CDF9;" width="2" height="2"/>
		</g>
	</g>
	<g>
		<g>
			<path style="fill:#A1CDF9;" d="M62,63h-4v-2h3v-3h2v4C63,62.553,62.553,63,62,63z"/>
		</g>
	</g>
	<g>
		<g>
			<path style="fill:#A1CDF9;" d="M63,32h-2V3H32V1h30c0.553,0,1,0.447,1,1V32z"/>
		</g>
	</g>
	<g>
		<g>
			<path style="fill:#A1CDF9;" d="M32,63H2c-0.553,0-1-0.447-1-1V32h2v29h29V63z"/>
		</g>
	</g>
	<path style="fill:#B8BEC5;" d="M50,37V27h-2.808c-0.251-0.762-0.561-1.495-0.919-2.202l1.99-1.99l-7.071-7.071l-1.99,1.99
		c-0.707-0.357-1.44-0.668-2.202-0.919V14H27v2.808c-0.762,0.251-1.495,0.561-2.202,0.919l-1.99-1.99l-7.071,7.071l1.99,1.99
		c-0.357,0.707-0.668,1.44-0.919,2.202H14v10h2.808c0.251,0.762,0.561,1.495,0.919,2.202l-1.99,1.99l7.071,7.071l1.99-1.99
		c0.707,0.357,1.44,0.668,2.202,0.919V50h10v-2.808c0.762-0.251,1.495-0.561,2.202-0.919l1.99,1.99l7.071-7.071l-1.99-1.99
		c0.357-0.707,0.668-1.44,0.919-2.202H50z"/>
	<circle style="fill:#FFFFFF;" cx="32" cy="32" r="10"/>
</g>
</svg>
