<?xml version="1.0" encoding="UTF-8"?>
<!DOCTYPE svg PUBLIC "-//W3C//DTD SVG 1.1//EN" "http://www.w3.org/Graphics/SVG/1.1/DTD/svg11.dtd">
<!-- Creator: CorelDRAW -->
<svg xmlns="http://www.w3.org/2000/svg" xml:space="preserve" width="7.11111in" height="7.11111in" version="1.1" style="shape-rendering:geometricPrecision; text-rendering:geometricPrecision; image-rendering:optimizeQuality; fill-rule:evenodd; clip-rule:evenodd"
viewBox="0 0 7111 7111"
 xmlns:xlink="http://www.w3.org/1999/xlink">
 <defs>
  <style type="text/css">
   <![CDATA[
    .fil1 {fill:#1F4188}
    .fil0 {fill:#FFCF00}
   ]]>
  </style>
 </defs>
 <g id="Layer_x0020_1">
  <metadata id="CorelCorpID_0Corel-Layer"/>
  <path class="fil0" d="M2411 6794l-2290 0c-67,0 -121,-54 -121,-121l0 -5387c0,-67 54,-121 121,-121l2290 0c66,0 120,54 120,121l0 5387c0,67 -54,121 -120,121zm-2169 -242l2048 0 0 -5145 -2048 0 0 5145z"/>
  <path class="fil0" d="M2411 1407l-2290 0c-67,0 -121,-55 -121,-121l0 -848c0,-67 54,-121 121,-121l2290 0c66,0 120,54 120,121l0 848c0,66 -54,121 -120,121zm-2169 -242l2048 0 0 -606 -2048 0 0 606z"/>
  <path class="fil0" d="M4700 6794l-2289 0c-67,0 -121,-54 -121,-121l0 -5387c0,-67 54,-121 121,-121l2289 0c67,0 121,54 121,121l0 5387c0,67 -54,121 -121,121zm-2169 -242l2049 0 0 -5145 -2049 0 0 5145z"/>
  <path class="fil0" d="M4700 1407l-2289 0c-67,0 -121,-55 -121,-121l0 -848c0,-67 54,-121 121,-121l2289 0c67,0 121,54 121,121l0 848c0,66 -54,121 -121,121zm-2169 -242l2049 0 0 -606 -2049 0 0 606z"/>
  <path class="fil0" d="M6990 6794l-2290 0c-66,0 -120,-54 -120,-121l0 -5387c0,-67 54,-121 120,-121l2290 0c67,0 121,54 121,121l0 5387c0,67 -54,121 -121,121zm-2169 -242l2048 0 0 -5145 -2048 0 0 5145z"/>
  <path class="fil0" d="M6990 1407l-2290 0c-66,0 -120,-55 -120,-121l0 -848c0,-67 54,-121 120,-121l2290 0c67,0 121,54 121,121l0 848c0,66 -54,121 -121,121zm-2169 -242l2048 0 0 -606 -2048 0 0 606z"/>
  <path class="fil1" d="M1912 983l-1293 0c-67,0 -121,-54 -121,-121 0,-67 54,-121 121,-121l1293 0c67,0 121,54 121,121 0,67 -54,121 -121,121z"/>
  <path class="fil1" d="M4202 983l-1293 0c-67,0 -121,-54 -121,-121 0,-67 54,-121 121,-121l1293 0c67,0 121,54 121,121 0,67 -54,121 -121,121z"/>
  <path class="fil1" d="M6492 983l-1293 0c-67,0 -121,-54 -121,-121 0,-67 54,-121 121,-121l1293 0c67,0 121,54 121,121 0,67 -54,121 -121,121z"/>
  <path class="fil1" d="M1878 3250l-1224 0c-67,0 -121,-54 -121,-121l0 -1224c0,-67 54,-121 121,-121l1224 0c66,0 120,54 120,121l0 1224c0,67 -54,121 -120,121zm-1103 -242l982 0 0 -982 -982 0 0 982z"/>
  <path class="fil1" d="M1878 5669l-1224 0c-67,0 -121,-54 -121,-121l0 -1223c0,-67 54,-121 121,-121l1224 0c66,0 120,54 120,121l0 1223c0,67 -54,121 -120,121zm-1103 -241l982 0 0 -983 -982 0 0 983z"/>
  <path class="fil1" d="M6457 3905l-1224 0c-66,0 -120,-54 -120,-120l0 -1224c0,-67 54,-121 120,-121l1224 0c67,0 121,54 121,121l0 1224c0,66 -54,120 -121,120zm-1103 -241l982 0 0 -982 -982 0 0 982z"/>
  <path class="fil1" d="M1180 2786c-31,0 -62,-11 -86,-35l-125 -125c-47,-47 -47,-124 0,-171 47,-47 124,-47 171,0l40 40 212 -212c47,-47 123,-47 171,0 47,47 47,124 0,171l-298 297c-23,24 -54,35 -85,35z"/>
  <path class="fil1" d="M1180 5206c-32,0 -63,-13 -86,-35l-125 -126c-47,-47 -47,-123 0,-170 47,-48 124,-48 171,0l40 40 212 -213c47,-47 123,-47 171,0 47,48 47,124 0,171l-298 298c-23,22 -53,35 -85,35z"/>
  <path class="fil1" d="M5759 3442l0 0c-32,0 -62,-12 -85,-35l-125 -125c-48,-48 -48,-124 0,-171 47,-47 123,-47 170,0l40 40 212 -212c48,-47 124,-47 171,0 47,47 47,123 0,171l-297 297c-23,23 -54,35 -86,35z"/>
  <path class="fil1" d="M3123 4849c-53,0 -102,-35 -117,-89l-316 -1182c-18,-64 21,-131 85,-148l1182 -317c64,-17 131,21 148,86l317 1182c8,31 3,64 -13,91 -16,28 -42,48 -73,57l-1182 316c-10,3 -21,4 -31,4zm-169 -1217l254 949 949 -254 -254 -949 -949 254z"/>
  <path class="fil1" d="M3265 3971c-53,0 -102,-36 -116,-90 -18,-64 21,-130 85,-147l477 -128c64,-17 131,21 148,85 17,65 -21,131 -86,148l-476 128c-11,3 -21,4 -32,4z"/>
  <path class="fil1" d="M3369 4357c-54,0 -102,-35 -117,-89 -17,-65 21,-131 86,-148l476 -128c65,-17 131,21 148,85 18,65 -21,131 -85,148l-477 128c-10,3 -21,4 -31,4z"/>
 </g>
</svg>
