<?xml version="1.0" encoding="UTF-8"?>
<!DOCTYPE svg PUBLIC "-//W3C//DTD SVG 1.1//EN" "http://www.w3.org/Graphics/SVG/1.1/DTD/svg11.dtd">
<!-- Creator: CorelDRAW -->
<svg xmlns="http://www.w3.org/2000/svg" xml:space="preserve" width="7.11111in" height="7.11111in" version="1.1" style="shape-rendering:geometricPrecision; text-rendering:geometricPrecision; image-rendering:optimizeQuality; fill-rule:evenodd; clip-rule:evenodd"
viewBox="0 0 7111 7111"
 xmlns:xlink="http://www.w3.org/1999/xlink">
 <defs>
  <style type="text/css">
   <![CDATA[
    .fil5 {fill:#3E80D6}
    .fil13 {fill:whitesmoke}
    .fil6 {fill:url(#id0)}
    .fil14 {fill:url(#id1)}
    .fil19 {fill:url(#id2)}
    .fil8 {fill:url(#id3)}
    .fil7 {fill:url(#id4)}
    .fil15 {fill:url(#id5)}
    .fil0 {fill:url(#id6)}
    .fil1 {fill:url(#id7)}
    .fil11 {fill:url(#id8)}
    .fil18 {fill:url(#id9)}
    .fil3 {fill:url(#id10)}
    .fil2 {fill:url(#id11)}
    .fil10 {fill:url(#id12)}
    .fil9 {fill:url(#id13)}
    .fil17 {fill:url(#id14)}
    .fil16 {fill:url(#id15)}
    .fil4 {fill:url(#id16)}
    .fil12 {fill:url(#id17)}
   ]]>
  </style>
  <linearGradient id="id0" gradientUnits="userSpaceOnUse" x1="1265.79" y1="982.685" x2="1265.79" y2="741.181">
   <stop offset="0" style="stop-opacity:1; stop-color:#FBFBFB"/>
   <stop offset="1" style="stop-opacity:1; stop-color:#F9F9F9"/>
  </linearGradient>
  <linearGradient id="id1" gradientUnits="userSpaceOnUse" x1="3383.08" y1="3970.96" x2="3383.08" y2="3601.65">
   <stop offset="0" style="stop-opacity:1; stop-color:yellow"/>
   <stop offset="1" style="stop-opacity:1; stop-color:#FFCC00"/>
  </linearGradient>
  <linearGradient id="id2" gradientUnits="userSpaceOnUse" x1="5845.31" y1="5040.41" x2="5845.31" y2="5579.37">
   <stop offset="0" style="stop-opacity:1; stop-color:#336699"/>
   <stop offset="1" style="stop-opacity:1; stop-color:#00CCFF"/>
  </linearGradient>
  <linearGradient id="id3" gradientUnits="userSpaceOnUse" xlink:href="#id0" x1="5845.32" y1="982.685" x2="5845.32" y2="741.181">
  </linearGradient>
  <linearGradient id="id4" gradientUnits="userSpaceOnUse" xlink:href="#id0" x1="3555.55" y1="982.685" x2="3555.55" y2="741.181">
  </linearGradient>
  <linearGradient id="id5" gradientUnits="userSpaceOnUse" xlink:href="#id1" x1="3486.56" y1="4357.11" x2="3486.56" y2="3987.79">
  </linearGradient>
  <linearGradient id="id6" gradientUnits="userSpaceOnUse" x1="1265.79" y1="6793.73" x2="1265.79" y2="1165">
   <stop offset="0" style="stop-opacity:1; stop-color:#378B4E"/>
   <stop offset="1" style="stop-opacity:1; stop-color:#99CC33"/>
  </linearGradient>
  <linearGradient id="id7" gradientUnits="userSpaceOnUse" xlink:href="#id6" x1="1265.79" y1="1406.5" x2="1265.79" y2="317.382">
  </linearGradient>
  <linearGradient id="id8" gradientUnits="userSpaceOnUse" xlink:href="#id6" x1="1145.03" y1="3159.81" x2="1145.03" y2="2620.88">
  </linearGradient>
  <linearGradient id="id9" gradientUnits="userSpaceOnUse" xlink:href="#id2" x1="5845.32" y1="2620.88" x2="5845.32" y2="3159.81">
  </linearGradient>
  <linearGradient id="id10" gradientUnits="userSpaceOnUse" x1="3555.56" y1="317.382" x2="3555.56" y2="1406.5">
   <stop offset="0" style="stop-opacity:1; stop-color:#FF9911"/>
   <stop offset="1" style="stop-opacity:1; stop-color:#FF6600"/>
  </linearGradient>
  <linearGradient id="id11" gradientUnits="userSpaceOnUse" xlink:href="#id1" x1="3555.56" y1="6793.73" x2="3555.56" y2="1165">
  </linearGradient>
  <linearGradient id="id12" gradientUnits="userSpaceOnUse" xlink:href="#id0" x1="1145.04" y1="6042.49" x2="1145.04" y2="4577.3">
  </linearGradient>
  <linearGradient id="id13" gradientUnits="userSpaceOnUse" xlink:href="#id0" x1="1145.04" y1="3622.94" x2="1145.04" y2="2157.74">
  </linearGradient>
  <linearGradient id="id14" gradientUnits="userSpaceOnUse" xlink:href="#id0" x1="5845.32" y1="6042.49" x2="5845.32" y2="4577.3">
  </linearGradient>
  <linearGradient id="id15" gradientUnits="userSpaceOnUse" xlink:href="#id0" x1="5845.32" y1="3622.94" x2="5845.32" y2="2157.74">
  </linearGradient>
  <linearGradient id="id16" gradientUnits="userSpaceOnUse" xlink:href="#id2" x1="5845.32" y1="1165" x2="5845.32" y2="6793.73">
  </linearGradient>
  <linearGradient id="id17" gradientUnits="userSpaceOnUse" xlink:href="#id6" x1="1145.02" y1="5579.37" x2="1145.02" y2="5040.41">
  </linearGradient>
 </defs>
 <g id="Layer_x0020_1">
  <metadata id="CorelCorpID_0Corel-Layer"/>
  <path class="fil0" d="M2411 6794l-2290 0c-67,0 -121,-54 -121,-121l0 -5387c0,-67 54,-121 121,-121l2290 0c66,0 120,54 120,121l0 5387c0,67 -54,121 -120,121z"/>
  <path class="fil1" d="M2411 1407l-2290 0c-67,0 -121,-55 -121,-121l0 -848c0,-67 54,-121 121,-121l2290 0c66,0 120,54 120,121l0 848c0,66 -54,121 -120,121z"/>
  <path class="fil2" d="M4700 6794l-2289 0c-67,0 -121,-54 -121,-121l0 -5387c0,-67 54,-121 121,-121l2289 0c67,0 121,54 121,121l0 5387c0,67 -54,121 -121,121z"/>
  <path class="fil3" d="M4700 1407l-2289 0c-67,0 -121,-55 -121,-121l0 -848c0,-67 54,-121 121,-121l2289 0c67,0 121,54 121,121l0 848c0,66 -54,121 -121,121z"/>
  <path class="fil4" d="M6990 6794l-2290 0c-66,0 -120,-54 -120,-121l0 -5387c0,-67 54,-121 120,-121l2290 0c67,0 121,54 121,121l0 5387c0,67 -54,121 -121,121z"/>
  <path class="fil5" d="M6990 1407l-2290 0c-66,0 -120,-55 -120,-121l0 -848c0,-67 54,-121 120,-121l2290 0c67,0 121,54 121,121l0 848c0,66 -54,121 -121,121z"/>
  <path class="fil6" d="M1912 983l-1293 0c-67,0 -121,-54 -121,-121 0,-67 54,-121 121,-121l1293 0c67,0 121,54 121,121 0,67 -54,121 -121,121z"/>
  <path class="fil7" d="M4202 983l-1293 0c-67,0 -121,-54 -121,-121 0,-67 54,-121 121,-121l1293 0c67,0 121,54 121,121 0,67 -54,121 -121,121z"/>
  <path class="fil8" d="M6492 983l-1293 0c-67,0 -121,-54 -121,-121 0,-67 54,-121 121,-121l1293 0c67,0 121,54 121,121 0,67 -54,121 -121,121z"/>
  <path class="fil9" d="M1757 3623l-1224 0c-66,0 -121,-54 -121,-121l0 -1224c0,-66 54,-120 121,-120l1224 0c67,0 121,54 121,121l0 1223c0,67 -54,121 -121,121z"/>
  <path class="fil10" d="M1757 6042l-1224 0c-66,0 -121,-54 -121,-120l0 -1224c0,-67 54,-121 121,-121l1224 0c67,0 121,54 121,121l0 1224c0,66 -54,120 -121,120z"/>
  <path class="fil11" d="M1059 3160c-31,0 -62,-12 -85,-36l-126 -125c-47,-47 -47,-124 0,-171 47,-47 124,-47 171,0l40 40 212 -212c47,-47 124,-47 171,0 47,47 47,124 0,171l-298 297c-23,24 -54,36 -85,36z"/>
  <path class="fil12" d="M1059 5579c-32,0 -63,-12 -85,-35l-126 -125c-47,-48 -47,-124 0,-171 47,-47 124,-47 171,0l40 40 212 -212c47,-47 124,-47 171,0 47,47 47,123 0,171l-298 297c-22,23 -53,35 -85,35z"/>
  <path class="fil13" d="M3002 4849c-53,0 -102,-35 -116,-89l-317 -1182c-17,-64 21,-131 85,-148l1182 -317c65,-17 131,21 148,86l317 1182c8,31 4,64 -12,91 -16,28 -43,48 -74,57l-1182 316c-10,3 -21,4 -31,4z"/>
  <path class="fil14" d="M3145 3971c-54,0 -103,-36 -117,-90 -17,-64 21,-130 85,-147l477 -128c65,-17 131,21 148,85 17,65 -21,131 -85,148l-477 128c-11,3 -21,4 -31,4z"/>
  <path class="fil15" d="M3248 4357c-53,0 -102,-35 -116,-89 -18,-65 20,-131 85,-148l477 -128c64,-17 130,21 148,85 17,65 -21,131 -86,148l-477 128c-10,3 -21,4 -31,4z"/>
  <path class="fil16" d="M6457 3623l-1224 0c-66,0 -120,-54 -120,-121l0 -1224c0,-66 54,-120 120,-120l1224 0c67,0 121,54 121,121l0 1223c0,67 -54,121 -121,121z"/>
  <path class="fil17" d="M6457 6042l-1224 0c-66,0 -120,-54 -120,-120l0 -1224c0,-67 54,-121 120,-121l1224 0c67,0 121,54 121,121l0 1224c0,66 -54,120 -121,120z"/>
  <path class="fil18" d="M5759 3160c-31,0 -62,-12 -85,-36l-125 -125c-48,-47 -48,-124 0,-171 47,-47 123,-47 170,0l40 40 212 -212c48,-47 124,-47 171,0 47,47 47,124 0,171l-297 297c-24,24 -55,36 -86,36z"/>
  <path class="fil19" d="M5759 5579c-32,0 -62,-12 -85,-35l-125 -125c-48,-48 -48,-124 0,-171 47,-47 123,-47 170,0l40 40 212 -212c47,-47 124,-47 171,0 47,47 47,123 0,171l-297 297c-23,23 -54,35 -86,35z"/>
 </g>
</svg>
