<?xml version="1.0" encoding="UTF-8"?>
<!DOCTYPE svg PUBLIC "-//W3C//DTD SVG 1.1//EN" "http://www.w3.org/Graphics/SVG/1.1/DTD/svg11.dtd">
<!-- Creator: CorelDRAW -->
<svg xmlns="http://www.w3.org/2000/svg" xml:space="preserve" width="7.11111in" height="7.11111in" version="1.1" style="shape-rendering:geometricPrecision; text-rendering:geometricPrecision; image-rendering:optimizeQuality; fill-rule:evenodd; clip-rule:evenodd"
viewBox="0 0 7111 7111"
 xmlns:xlink="http://www.w3.org/1999/xlink">
 <defs>
  <style type="text/css">
   <![CDATA[
    .fil1 {fill:#3BA35A}
    .fil5 {fill:#3E80D6}
    .fil0 {fill:#4FBA6F}
    .fil4 {fill:#5C9CEE}
    .fil6 {fill:whitesmoke}
    .fil3 {fill:#FFAE06}
    .fil2 {fill:#FFC107}
   ]]>
  </style>
 </defs>
 <g id="Layer_x0020_1">
  <metadata id="CorelCorpID_0Corel-Layer"/>
  <g id="_599413216">
   <path class="fil0" d="M2411 6794l-2290 0c-67,0 -121,-54 -121,-121l0 -5387c0,-67 54,-121 121,-121l2290 0c66,0 120,54 120,121l0 5387c0,67 -54,121 -120,121z"/>
   <path class="fil1" d="M2411 1407l-2290 0c-67,0 -121,-55 -121,-121l0 -848c0,-67 54,-121 121,-121l2290 0c66,0 120,54 120,121l0 848c0,66 -54,121 -120,121z"/>
   <path class="fil2" d="M4700 6794l-2289 0c-67,0 -121,-54 -121,-121l0 -5387c0,-67 54,-121 121,-121l2289 0c67,0 121,54 121,121l0 5387c0,67 -54,121 -121,121z"/>
   <path class="fil3" d="M4700 1407l-2289 0c-67,0 -121,-55 -121,-121l0 -848c0,-67 54,-121 121,-121l2289 0c67,0 121,54 121,121l0 848c0,66 -54,121 -121,121z"/>
   <path class="fil4" d="M6990 6794l-2290 0c-66,0 -120,-54 -120,-121l0 -5387c0,-67 54,-121 120,-121l2290 0c67,0 121,54 121,121l0 5387c0,67 -54,121 -121,121z"/>
   <path class="fil5" d="M6990 1407l-2290 0c-66,0 -120,-55 -120,-121l0 -848c0,-67 54,-121 120,-121l2290 0c67,0 121,54 121,121l0 848c0,66 -54,121 -121,121z"/>
   <path class="fil6" d="M1912 983l-1293 0c-67,0 -121,-54 -121,-121 0,-67 54,-121 121,-121l1293 0c67,0 121,54 121,121 0,67 -54,121 -121,121z"/>
   <path class="fil6" d="M4202 983l-1293 0c-67,0 -121,-54 -121,-121 0,-67 54,-121 121,-121l1293 0c67,0 121,54 121,121 0,67 -54,121 -121,121z"/>
   <path class="fil6" d="M6492 983l-1293 0c-67,0 -121,-54 -121,-121 0,-67 54,-121 121,-121l1293 0c67,0 121,54 121,121 0,67 -54,121 -121,121z"/>
   <g>
    <path class="fil6" d="M1757 3623l-1224 0c-66,0 -121,-54 -121,-121l0 -1224c0,-66 54,-120 121,-120l1224 0c67,0 121,54 121,121l0 1223c0,67 -54,121 -121,121z"/>
    <path class="fil6" d="M1757 6042l-1224 0c-66,0 -121,-54 -121,-120l0 -1224c0,-67 54,-121 121,-121l1224 0c67,0 121,54 121,121l0 1224c0,66 -54,120 -121,120z"/>
    <path class="fil0" d="M1059 3160c-31,0 -62,-12 -85,-36l-126 -125c-47,-47 -47,-124 0,-171 47,-47 124,-47 171,0l40 40 212 -212c47,-47 124,-47 171,0 47,47 47,124 0,171l-298 297c-23,24 -54,36 -85,36z"/>
    <path class="fil0" d="M1059 5579c-32,0 -63,-12 -85,-35l-126 -125c-47,-48 -47,-124 0,-171 47,-47 124,-47 171,0l40 40 212 -212c47,-47 124,-47 171,0 47,47 47,123 0,171l-298 297c-22,23 -53,35 -85,35z"/>
   </g>
   <g>
    <path class="fil6" d="M3002 4849c-53,0 -102,-35 -116,-89l-317 -1182c-17,-64 21,-131 85,-148l1182 -317c65,-17 131,21 148,86l317 1182c8,31 4,64 -12,91 -16,28 -43,48 -74,57l-1182 316c-10,3 -21,4 -31,4z"/>
    <path class="fil2" d="M3145 3971c-54,0 -103,-36 -117,-90 -17,-64 21,-130 85,-147l477 -128c65,-17 131,21 148,85 17,65 -21,131 -85,148l-477 128c-11,3 -21,4 -31,4z"/>
    <path class="fil2" d="M3248 4357c-53,0 -102,-35 -116,-89 -18,-65 20,-131 85,-148l477 -128c64,-17 130,21 148,85 17,65 -21,131 -86,148l-477 128c-10,3 -21,4 -31,4z"/>
   </g>
   <path class="fil6" d="M6457 3623l-1224 0c-66,0 -120,-54 -120,-121l0 -1224c0,-66 54,-120 120,-120l1224 0c67,0 121,54 121,121l0 1223c0,67 -54,121 -121,121z"/>
   <path class="fil6" d="M6457 6042l-1224 0c-66,0 -120,-54 -120,-120l0 -1224c0,-67 54,-121 120,-121l1224 0c67,0 121,54 121,121l0 1224c0,66 -54,120 -121,120z"/>
   <path class="fil4" d="M5759 3160c-31,0 -62,-12 -85,-36l-125 -125c-48,-47 -48,-124 0,-171 47,-47 123,-47 170,0l40 40 212 -212c48,-47 124,-47 171,0 47,47 47,124 0,171l-297 297c-24,24 -55,36 -86,36z"/>
   <path class="fil4" d="M5759 5579c-32,0 -62,-12 -85,-35l-125 -125c-48,-48 -48,-124 0,-171 47,-47 123,-47 170,0l40 40 212 -212c47,-47 124,-47 171,0 47,47 47,123 0,171l-297 297c-23,23 -54,35 -86,35z"/>
  </g>
 </g>
</svg>
